<svg width="3000" height="718.43" viewBox="0 0 793.75 190.08" xmlns="http://www.w3.org/2000/svg"><path d="M793.74 0h-6.945c-.73 0-1.323.592-1.323 1.323v5.622c0 .73-.592 1.323-1.323 1.323h-38.695c-.73 0-1.323.592-1.323 1.323v13.89c0 .73-.592 1.323-1.323 1.323h-71.767c-.73 0-1.323.592-1.323 1.323v13.89c0 .731-.592 1.324-1.323 1.324H555.287c-.73 0-1.323-.593-1.323-1.323V26.127c0-.73-.592-1.323-1.323-1.323h-5.622c-.73 0-1.323-.592-1.323-1.323V9.59c0-.73-.592-1.323-1.323-1.323h-5.622c-.73 0-1.323-.592-1.323-1.323V1.323c0-.73-.592-1.323-1.323-1.323h-13.89c-.73 0-1.323.592-1.323 1.323v5.622c0 .73-.592 1.323-1.323 1.323h-38.695c-.73 0-1.323.592-1.323 1.323v13.89c0 .73-.592 1.323-1.323 1.323h-71.767c-.73 0-1.323.592-1.323 1.323v13.89c0 .731-.592 1.324-1.323 1.324H290.707c-.73 0-1.323-.593-1.323-1.323V26.127c0-.73-.592-1.323-1.323-1.323h-5.622c-.73 0-1.323-.592-1.323-1.323V9.59c0-.73-.592-1.323-1.323-1.323h-5.622c-.73 0-1.323-.592-1.323-1.323V1.323c0-.73-.592-1.323-1.323-1.323h-13.89c-.73 0-1.323.592-1.323 1.323v5.622c0 .73-.592 1.323-1.323 1.323h-38.695c-.73 0-1.323.592-1.323 1.323v13.89c0 .73-.592 1.323-1.323 1.323h-71.767c-.73 0-1.323.592-1.323 1.323v13.89c0 .731-.592 1.324-1.323 1.324H26.127c-.73 0-1.323-.593-1.323-1.323V26.127c0-.73-.592-1.323-1.323-1.323H17.86c-.73 0-1.323-.592-1.323-1.323V9.59c0-.73-.592-1.323-1.323-1.323H9.591c-.73 0-1.323-.592-1.323-1.323V1.323C8.268.593 7.676 0 6.945 0H0v190.082h793.74" fill="#293040" paint-order="stroke fill markers"/><g fill="#ffff8d" stroke-linejoin="round" stroke-width=".584" paint-order="stroke fill markers"><rect x="1.72" y="1.72" width="4.828" height="4.827" ry=".751" opacity=".3"/><rect x="34.793" y="43.061" width="4.828" height="4.827" ry=".751" opacity=".3"/><rect x="43.061" y="43.061" width="4.828" height="4.827" ry=".751" opacity=".3"/><rect x="84.403" y="51.329" width="4.828" height="4.827" ry=".751" opacity=".3"/><rect x="175.35" y="26.525" width="4.828" height="4.827" ry=".751" opacity=".3"/><rect x="216.69" y="9.988" width="4.828" height="4.827" ry=".751" opacity=".3"/><rect x="224.96" y="9.988" width="4.828" height="4.827" ry=".751" opacity=".3"/><rect x="249.77" y="43.061" width="4.828" height="4.827" ry=".751" opacity=".3"/><rect x="266.3" y="18.257" width="4.828" height="4.827" ry=".751" opacity=".3"/><rect x="348.99" y="43.061" width="4.828" height="4.827" ry=".751" opacity=".3"/><rect x="357.25" y="43.061" width="4.828" height="4.827" ry=".751" opacity=".3"/><rect x="522.62" y="18.257" width="4.828" height="4.827" ry=".751" opacity=".3"/><rect x="530.89" y="18.257" width="4.828" height="4.827" ry=".751" opacity=".3"/><rect x="423.4" y="34.793" width="4.828" height="4.827" ry=".751" opacity=".3"/><rect x="448.2" y="51.329" width="4.828" height="4.827" ry=".751" opacity=".3"/><rect x="506.08" y="43.061" width="4.828" height="4.827" ry=".751" opacity=".3"/><rect x="580.5" y="51.33" width="4.828" height="4.827" ry=".751" opacity=".3"/><rect x="588.76" y="43.061" width="4.828" height="4.827" ry=".751" opacity=".3"/><rect x="687.98" y="34.793" width="4.828" height="4.827" ry=".751" opacity=".3"/><rect x="729.32" y="43.061" width="4.828" height="4.827" ry=".751" opacity=".3"/><rect x="770.67" y="18.257" width="4.828" height="4.827" ry=".751" opacity=".3"/><rect x="721.06" y="43.061" width="4.828" height="4.827" ry=".751" opacity=".3"/></g></svg>