<svg width="3751.9" height="252.99" viewBox="0 0 992.7 66.936" xmlns="http://www.w3.org/2000/svg"><defs><filter id="a" x="0" y="0" width="1" height="1" color-interpolation-filters="sRGB"><feGaussianBlur/></filter></defs><g filter="url(#a)"><path d="M0 0v44.624h10.67a5.578 5.578 0 010 11.156H5.577a5.601 5.601 0 00-2.171.438 5.565 5.565 0 00-2.454 2.021 5.565 5.565 0 00-.84 1.995 5.601 5.601 0 00.84 4.242 5.601 5.601 0 003.5 2.346 5.6 5.6 0 001.125.114H77.5a5.578 5.578 0 000-11.156H61.045a5.578 5.578 0 010-11.156h91.595a5.578 5.578 0 000-11.156h-27.763a5.578 5.578 0 010-11.156h158.034a5.578 5.578 0 010 11.156h-41.203a5.578 5.578 0 000 11.155h25.279l.05.001h63.857V0zm330.884 0v44.624h10.67a5.578 5.578 0 010 11.156h-5.092a5.601 5.601 0 00-2.171.438 5.567 5.567 0 00-2.454 2.021 5.57 5.57 0 00-.84 1.995 5.602 5.602 0 00.84 4.242 5.603 5.603 0 003.5 2.346 5.6 5.6 0 001.125.114h71.923a5.578 5.578 0 000-11.156h-16.457a5.578 5.578 0 010-11.156h91.595a5.578 5.578 0 000-11.156h-27.762a5.578 5.578 0 010-11.156h158.034a5.578 5.578 0 010 11.156h-41.203a5.578 5.578 0 000 11.155h25.278l.051.001h63.856V0zm330.883 0v44.624h10.67a5.578 5.578 0 010 11.156h-5.092a5.604 5.604 0 00-2.17.438 5.566 5.566 0 00-2.455 2.021 5.565 5.565 0 00-.84 1.995 5.602 5.602 0 00.84 4.242 5.603 5.603 0 003.501 2.346c.364.075.74.114 1.124.114h71.924a5.578 5.578 0 000-11.156h-16.457a5.578 5.578 0 010-11.156h91.595a5.578 5.578 0 000-11.156h-27.762a5.578 5.578 0 010-11.156h158.033a5.578 5.578 0 010 11.156h-41.203a5.578 5.578 0 000 11.155h25.28l.05.001h63.856V0z" fill="#fff" opacity=".316" paint-order="stroke fill markers"/></g></svg>