<?xml version="1.0" encoding="UTF-8"?>
<svg width="168.14mm" height="157.77mm" version="1.1" viewBox="0 0 168.14 157.77" xmlns="http://www.w3.org/2000/svg" xmlns:cc="http://creativecommons.org/ns#" xmlns:dc="http://purl.org/dc/elements/1.1/" xmlns:rdf="http://www.w3.org/1999/02/22-rdf-syntax-ns#" xmlns:xlink="http://www.w3.org/1999/xlink">
 <defs>
  <linearGradient id="nh">
   <stop stop-color="#f6f6f9" offset="0"/>
   <stop stop-color="#c0c4cf" offset="1"/>
  </linearGradient>
  <linearGradient id="linearGradient2047" x1="131.86" x2="131.86" y1="157.78" y2="193.96" gradientUnits="userSpaceOnUse" xlink:href="#nh"/>
 </defs>
 <metadata>
  <rdf:RDF>
   <cc:Work rdf:about="">
    <dc:format>image/svg+xml</dc:format>
    <dc:type rdf:resource="http://purl.org/dc/dcmitype/StillImage"/>
    <dc:title/>
   </cc:Work>
  </rdf:RDF>
 </metadata>
 <g transform="translate(-47.69 -47.055)">
  <g transform="matrix(1.0831 0 0 1.0831 -11.524 -5.1957)" fill="url(#linearGradient2047)" shape-rendering="auto">
   <path d="m93.672 57.445c-0.25722 0.0101-0.52552 0.06984-0.75082 0.19872-0.4506 0.25776-0.64725 0.6163-0.75657 0.87963-0.21863 0.52666-0.21362 0.9071-0.21165 1.3647 2e-3 0.45759 0.04612 0.96764 0.12642 1.5562 0.32117 2.3543 1.1626 5.6566 0.83079 10.536-0.33179 4.8799-1.9013 11.469-2.4177 15.809-0.2582 2.1697-0.29678 3.7958 0.215 5.1992 0.51178 1.4034 1.8526 2.3856 3.2848 2.6207 1.4489 0.2378 3.0357 0.0245 4.5916-0.19729 1.1245-0.16023 1.9866-0.26844 2.8304-0.36535-0.21314 0.20186-0.30309 0.32327-0.58084 0.56455-2.8718 2.4947-9.2068 6.9541-12.348 9.5811-0.78534 0.65673-1.366 1.1876-1.7933 1.6774-0.21361 0.24489-0.39684 0.45665-0.56312 0.83269-0.08314 0.18803-0.17936 0.43324-0.15945 0.8217 0.01991 0.38846 0.27766 0.92785 0.63542 1.1961 0.71552 0.53657 1.1508 0.35494 1.4825 0.30023 0.33168-0.0547 0.63084-0.1477 0.98066-0.27486 0.69965-0.25431 1.5752-0.65376 2.7054-1.2253 4.5209-2.2863 12.989-7.3111 17.562-10.327 2.2868-1.5078 3.6083-2.4747 4.4613-3.5199 0.85302-1.0453 0.97935-2.4885 0.6857-3.4352-0.58738-1.8936-2.2275-4.2004-5.1126-5.1216-2.8853-0.9213-6.2774-0.32751-8.0354-0.396-0.86201-0.0336-1.0496-0.11908-1.256-0.36009-0.2064-0.24101-0.54442-1.0197-0.72928-2.659-0.37105-3.2904-0.27587-9.6817-0.89255-14.565-0.61669-4.8832-1.8516-8.0192-2.9243-9.561-0.26815-0.38543-0.45266-0.7531-1.1765-1.0319-0.18096-0.0697-0.42704-0.10921-0.68426-0.09912z" color="#000000" color-rendering="auto" dominant-baseline="auto" image-rendering="auto" solid-color="#000000" stop-color="#000000" style="font-feature-settings:normal;font-variant-alternates:normal;font-variant-caps:normal;font-variant-east-asian:normal;font-variant-ligatures:normal;font-variant-numeric:normal;font-variant-position:normal;font-variation-settings:normal;inline-size:0;isolation:auto;mix-blend-mode:normal;paint-order:markers stroke fill;shape-margin:0;shape-padding:0;text-decoration-color:#000000;text-decoration-line:none;text-decoration-style:solid;text-indent:0;text-orientation:mixed;text-transform:none;white-space:normal"/>
   <path d="m96.783 112.33c-1.4304-0.0272-3.0684 0.26074-5.2519 0.99886-4.3671 1.4763-11.362 4.6099-14.871 6.177-3.5086 1.5671-3.1392 1.4582-5.1308 1.775-1.9915 0.31686-5.9573 0.93058-8.6617 0.92128-2.7043-0.01-4.2217-0.63148-5.8078-0.72735-0.39654-0.024-0.75842-0.0414-1.2665 0.14988-0.25405 0.0957-0.59381 0.26179-0.86909 0.679-0.27528 0.41719-0.31246 1.0574-0.18052 1.4475 0.26387 0.78024 0.6643 0.97324 1.0836 1.2527 0.41931 0.27941 0.9353 0.54595 1.6199 0.84514 2.7384 1.1967 8.3514 2.948 15.132 2.456 6.7804-0.49203 14.355-3.1831 18.887-4.4484 2.2658-0.63267 3.7854-0.91903 4.8214-0.98449 1.036-0.0654 1.5538 0.0521 2.1155 0.27677 0.56189 0.2248 0.71545 0.23783 1.0405 1.0568 0.32508 0.81896 0.60437 2.5459 0.52289 5.6446-0.0172 0.65538-0.18865 1.7759-0.23511 2.5412-0.6952 0.10001-1.3822 0.19733-2.1136 0.45059-4.0424 1.3997-9.6538 4.6673-13.02 8.8532-3.3658 4.1859-4.1049 9.2434-2.4378 14.073 1.6671 4.8295 5.3751 9.335 8.5329 11.382 0.78946 0.51176 1.6055 0.9082 2.5374 1.006 0.41828 0.0439 0.84922-0.0151 1.2704-0.11779-0.53375 2.5513-1.2691 5.675-1.562 7.5503-0.4089 2.6179-0.514 4.3476-0.26384 5.7753s0.97321 2.4925 1.7554 3.2776c0.7822 0.78512 1.7402 1.5263 2.7074 2.1371 0.96714 0.61075 1.8846 1.0992 2.8702 1.2957 0.48599 0.0969 1.3236 0.0984 1.9584-0.37444 0.63489-0.47283 0.89216-1.0829 1.1238-1.7789 0.46336-1.392 0.81005-3.509 1.4097-7.3531 1.1993-7.6882 3.1251-21.065 3.9183-28.061 0.19836-1.7496 0.32308-3.075 0.37255-4.0505 0.0247-0.48771 0.0321-0.8849 0.0129-1.2397-0.0192-0.35479 0.0525-0.60939-0.3098-1.2086-0.18116-0.29961-0.73634-0.77894-1.3609-0.77477-0.62451 4e-3 -0.93791 0.29321-1.12 0.46495-0.0391 0.0369-0.0336 0.0616-0.067 0.0963 1.0069-3.2838 2.069-6.6981 2.8122-9.4073 1.0834-3.9491 1.7762-6.8393 1.9872-9.2138 0.21094-2.3745-0.11102-4.3288-1.1291-5.9577-2.0391-3.2622-6.1233-4.9488-8.8284-5.9941-1.3526-0.52266-2.5746-0.86484-4.005-0.89207zm2.2841 27.192c-0.63646 5.2568-1.4661 10.606-2.456 14.124-0.8284 2.9442-1.8019 4.3894-2.1624 4.651-0.18025 0.13081-0.08998 0.0875-0.16664 0.067-0.07667-0.0205-0.35684-0.16493-0.70964-0.54491-0.70558-0.75996-1.5643-2.2702-2.0537-3.9959-0.48945-1.7257-0.63186-3.6624-0.18292-5.3731 0.89784-3.4211 4.5846-6.8504 6.8536-8.4103 0.38225-0.26279 0.61642-0.37689 0.87771-0.51762z" color="#000000" color-rendering="auto" dominant-baseline="auto" image-rendering="auto" solid-color="#000000" stop-color="#000000" style="font-feature-settings:normal;font-variant-alternates:normal;font-variant-caps:normal;font-variant-east-asian:normal;font-variant-ligatures:normal;font-variant-numeric:normal;font-variant-position:normal;font-variation-settings:normal;inline-size:0;isolation:auto;mix-blend-mode:normal;paint-order:markers stroke fill;shape-margin:0;shape-padding:0;text-decoration-color:#000000;text-decoration-line:none;text-decoration-style:solid;text-indent:0;text-orientation:mixed;text-transform:none;white-space:normal"/>
   <path d="m144.2 48.241c-1.1142-4.91e-4 -1.9055 0.73179-2.3889 1.5184-0.48346 0.78661-0.75942 1.7517-0.84132 2.8668-0.082 1.1151 0.0259 2.0234-0.26241 3.7263-0.28831 1.7029-0.97275 4.1888-2.6657 8.0627-3.3859 7.7478-10.833 21.045-14.616 28.631-1.8933 3.796-2.88 6.1989-3.337 8.0191-0.45697 1.8202-0.30003 3.1798 0.0307 4.208 0.66741 2.0751 2.1176 4.4979 3.7192 6.0501 0.78382 0.75969 2.2079 1.5635 4.2147 1.4279 2.0068-0.13556 4.7448-0.90732 9.3441-2.6949 3.9067-1.5184 9.1976-3.8732 14.739-6.3743-0.75243 1.6138-1.3093 3.4199-1.6994 5.4894-0.76315 4.0486-1.0002 9.1151-1.1947 15.937-0.38897 13.643-0.57697 34.398-0.35482 44.009 0.0247 1.0693 0.0738 1.5606 0.10869 2.3727-3.755-0.98269-9.0016-2.1142-12.37-2.579-1.0187-0.1406-1.8237-0.21623-2.4794-0.22602-0.6557-0.01-1.099-0.10814-1.8675 0.36728-0.38424 0.23771-0.86201 0.95821-0.80397 1.5783 0.058 0.62004 0.33543 0.911 0.54157 1.131 0.41225 0.44003 0.83735 0.68587 1.3987 0.99696 1.1462 0.63521 2.961 1.4184 4.8195 2.4272 1.8585 1.0088 3.705 2.2498 4.662 3.4204 0.96301 1.1779 2.0165 3.4855 2.8922 5.8112 0.87566 2.3258 1.6018 4.6496 2.2692 6.1967 0.6568 1.5226 1.268 2.6454 2.5594 3.1311 0.64573 0.24284 1.365 0.19087 1.9254 2e-3 0.56046-0.18899 1.0225-0.47885 1.4897-0.81068 1.8689-1.3274 4.1611-3.6837 5.4688-5.4894 0.65389-0.90288 1.1502-2.0964 1.2072-4.1405 0.0569-2.0441-0.13379-5.2272-0.50471-11.199-0.74185-11.944-2.2219-35-2.0834-48.256 0.0693-6.6278 0.54692-10.807 1.2201-13.554 0.67316-2.7467 1.4796-4.0303 2.4215-5.1959 1.8838-2.3311 3.8146-3.4904 8.8532-4.9483 5.0386-1.4579 12.961-3.0415 17.559-4.5461 2.299-0.75231 3.8027-1.4186 4.8013-2.5445 0.49932-0.56299 0.8343-1.3191 0.84372-2.0719 0.01-0.75286-0.25418-1.4174-0.59902-1.9982-1.3795-2.3233-4.3314-4.3791-6.7617-5.5359-1.2152-0.57844-2.6531-0.901-4.526-0.55402-1.8729 0.34698-4.3136 1.2131-8.4625 2.8323-8.2978 3.2385-23.435 9.558-31.429 12.249-1.9985 0.67265-3.5453 1.1144-4.6562 1.3211-1.1109 0.20675-1.759 0.12554-1.8933 0.0723-0.13428-0.0532-0.0441 0.11744-0.10484-0.27486-0.0607-0.39229-0.0127-1.24 0.19345-2.3765 0.82468-4.5455 3.6876-13.339 5.8514-20.197 2.1637-6.8575 3.5675-11.643 4.5605-15.362 0.99316-3.7196 1.6025-6.3108 1.4389-8.5406-0.0819-1.115-0.35841-2.0783-0.8418-2.8649-0.48339-0.78657-1.2751-1.5199-2.3889-1.5203z" color="#000000" color-rendering="auto" dominant-baseline="auto" image-rendering="auto" solid-color="#000000" stop-color="#000000" style="font-feature-settings:normal;font-variant-alternates:normal;font-variant-caps:normal;font-variant-east-asian:normal;font-variant-ligatures:normal;font-variant-numeric:normal;font-variant-position:normal;font-variation-settings:normal;inline-size:0;isolation:auto;mix-blend-mode:normal;paint-order:markers stroke fill;shape-margin:0;shape-padding:0;text-decoration-color:#000000;text-decoration-line:none;text-decoration-style:solid;text-indent:0;text-orientation:mixed;text-transform:none;white-space:normal"/>
   <path d="m176.65 125.21c-0.24877-7.4e-4 -0.52145 0.0301-0.85616 0.17286-0.44629 0.19026-0.96954 0.79022-1.0534 1.3465-0.1678 1.1126 0.31268 1.5031 0.7058 2.0327 0.39311 0.52954 0.91832 1.1054 1.6051 1.7971 2.7469 2.7669 8.0084 7.2887 11.536 12.254 3.5273 4.9652 5.4358 10.548 7.3622 13.879 0.96315 1.6655 1.9596 2.8 3.2523 3.3538 1.2926 0.55378 2.6773 0.32862 3.8494-0.16472 2.3441-0.98665 4.742-2.9813 6.054-4.9823 0.65601-1.0006 1.0283-2.3585 0.65839-3.6794-0.36994-1.3209-1.2184-2.5752-2.6025-4.3397-2.7682-3.5291-7.9286-9.1702-13.561-13.382-5.6322-4.2114-11.504-6.8319-14.67-7.8309-0.79148-0.24977-1.4058-0.41366-2.0375-0.44915-0.0789-4e-3 -0.15936-8e-3 -0.24229-9e-3z" color="#000000" color-rendering="auto" dominant-baseline="auto" image-rendering="auto" solid-color="#000000" stop-color="#000000" style="font-feature-settings:normal;font-variant-alternates:normal;font-variant-caps:normal;font-variant-east-asian:normal;font-variant-ligatures:normal;font-variant-numeric:normal;font-variant-position:normal;font-variation-settings:normal;inline-size:0;isolation:auto;mix-blend-mode:normal;paint-order:markers stroke fill;shape-margin:0;shape-padding:0;text-decoration-color:#000000;text-decoration-line:none;text-decoration-style:solid;text-indent:0;text-orientation:mixed;text-transform:none;white-space:normal"/>
   <path d="m141.01 127.33c-0.33311-2e-3 -0.6029 0.0859-0.90549 0.1676-0.4841 0.13063-1.0183 0.3368-1.6649 0.63349-2.5868 1.1869-6.9501 3.8393-10.984 7.0744-2.0168 1.6176-3.8852 3.3308-5.5052 4.6242-1.62 1.2934-3.0522 2.0688-3.6559 2.1265-0.60375 0.0577-1.1286-0.27581-1.7952-1.0606-0.66659-0.78483-1.2479-1.8662-1.8368-2.7308-0.29447-0.43231-0.54887-0.78082-0.97539-1.1076-0.21327-0.16336-0.48761-0.34856-0.94476-0.41083-0.45716-0.0623-1.0912 0.14825-1.4226 0.47596-0.66297 0.65539-0.60045 1.1664-0.62825 1.6812-0.0278 0.51482 8e-3 1.0889 0.0905 1.8024 0.33364 2.8538 1.4235 7.868 3.1024 11.145 1.6788 3.2769 4.087 4.456 5.7116 4.7903 0.81228 0.16712 1.9036 0.1753 2.8089-0.39792s1.523-1.4511 2.264-2.7581c1.4818-2.6141 3.4418-7.1771 5.4942-10.537 2.0523-3.3598 4.2148-5.6075 6.3958-7.4943s4.2962-3.2588 5.498-4.5715c0.30056-0.32827 0.56555-0.6108 0.73886-1.187 0.0867-0.28813 0.15055-0.72483-0.0565-1.2072-0.20703-0.48232-0.68515-0.82243-1.0405-0.93757-0.26653-0.0864-0.48918-0.11961-0.68905-0.12067z" color="#000000" color-rendering="auto" dominant-baseline="auto" image-rendering="auto" solid-color="#000000" stop-color="#000000" style="font-feature-settings:normal;font-variant-alternates:normal;font-variant-caps:normal;font-variant-east-asian:normal;font-variant-ligatures:normal;font-variant-numeric:normal;font-variant-position:normal;font-variation-settings:normal;inline-size:0;isolation:auto;mix-blend-mode:normal;paint-order:markers stroke fill;shape-margin:0;shape-padding:0;text-decoration-color:#000000;text-decoration-line:none;text-decoration-style:solid;text-indent:0;text-orientation:mixed;text-transform:none;white-space:normal"/>
  </g>
 </g>
</svg>
