<svg width="635.51" height="596.31" viewBox="0 0 168.14 157.77" xmlns="http://www.w3.org/2000/svg" xmlns:xlink="http://www.w3.org/1999/xlink"><defs><linearGradient id="a"><stop stop-color="#f6f6f9" offset="0"/><stop stop-color="#c0c4cf" offset="1"/></linearGradient><linearGradient id="b" x1="131.86" x2="131.86" y1="157.78" y2="193.96" gradientUnits="userSpaceOnUse" xlink:href="#a"/></defs><g transform="translate(-59.214 -52.25) scale(1.0831)" fill="url(#b)" color="#000" paint-order="markers stroke fill"><path d="M93.672 57.445c-.257.01-.526.07-.75.199-.451.257-.648.616-.757.88-.219.526-.214.906-.212 1.364.002.458.046.968.126 1.556.322 2.355 1.163 5.657.831 10.536-.332 4.88-1.901 11.47-2.418 15.81-.258 2.169-.296 3.795.215 5.198.512 1.404 1.853 2.386 3.285 2.621 1.45.238 3.036.025 4.592-.197 1.124-.16 1.986-.269 2.83-.365-.213.201-.303.323-.58.564-2.872 2.495-9.207 6.954-12.349 9.581-.785.657-1.366 1.188-1.793 1.678-.213.244-.397.456-.563.832-.083.188-.18.433-.16.822.02.388.278.928.636 1.196.715.537 1.15.355 1.482.3.332-.054.631-.147.981-.275.7-.254 1.575-.653 2.706-1.225 4.52-2.286 12.989-7.311 17.562-10.327 2.286-1.508 3.608-2.475 4.46-3.52.854-1.045.98-2.488.687-3.435-.588-1.894-2.228-4.2-5.113-5.122-2.885-.92-6.277-.327-8.035-.396-.862-.033-1.05-.119-1.256-.36-.207-.24-.545-1.02-.73-2.659-.37-3.29-.276-9.681-.892-14.565-.617-4.883-1.852-8.019-2.925-9.56-.268-.386-.452-.754-1.176-1.033a1.781 1.781 0 00-.684-.099zM96.783 112.33c-1.43-.027-3.068.26-5.252.999-4.367 1.476-11.362 4.61-14.87 6.177-3.51 1.567-3.14 1.458-5.132 1.775-1.991.317-5.957.93-8.661.921-2.705-.01-4.222-.631-5.808-.727-.397-.024-.759-.042-1.267.15a1.698 1.698 0 00-.869.679c-.275.417-.312 1.057-.18 1.447.264.78.664.973 1.083 1.253.42.28.936.546 1.62.845 2.739 1.197 8.352 2.948 15.132 2.456 6.78-.492 14.355-3.183 18.887-4.448 2.266-.633 3.786-.92 4.822-.985 1.036-.065 1.553.052 2.115.277.562.225.716.238 1.04 1.057.326.819.605 2.546.523 5.644-.017.656-.188 1.776-.235 2.541-.695.1-1.382.198-2.113.451-4.043 1.4-9.654 4.667-13.02 8.853-3.366 4.186-4.105 9.244-2.438 14.073 1.667 4.83 5.375 9.335 8.533 11.382.79.512 1.605.908 2.537 1.006.419.044.85-.015 1.27-.118-.533 2.552-1.268 5.675-1.561 7.55-.41 2.619-.514 4.348-.264 5.776s.973 2.493 1.755 3.278c.782.785 1.74 1.526 2.708 2.137.967.61 1.884 1.099 2.87 1.295.486.097 1.323.099 1.958-.374s.892-1.083 1.124-1.779c.463-1.392.81-3.509 1.41-7.353 1.199-7.688 3.125-21.065 3.918-28.061.198-1.75.323-3.075.373-4.05.024-.488.032-.885.012-1.24-.019-.355.053-.61-.31-1.209-.18-.3-.736-.779-1.36-.775-.625.004-.938.294-1.12.465-.04.037-.034.062-.067.097 1.007-3.284 2.069-6.698 2.812-9.408 1.083-3.949 1.776-6.839 1.987-9.213.211-2.375-.11-4.33-1.129-5.958-2.039-3.262-6.123-4.949-8.828-5.994-1.353-.523-2.575-.865-4.005-.892zm2.284 27.192c-.636 5.257-1.466 10.606-2.456 14.124-.828 2.944-1.802 4.39-2.162 4.651-.18.13-.09.087-.167.067-.077-.02-.357-.165-.71-.545-.705-.76-1.564-2.27-2.053-3.996-.49-1.726-.632-3.662-.183-5.373.898-3.421 4.584-6.85 6.853-8.41.383-.263.617-.377.878-.518zM144.2 48.241c-1.114 0-1.905.732-2.389 1.518-.483.787-.76 1.752-.841 2.867-.082 1.115.026 2.024-.263 3.726-.288 1.703-.972 4.19-2.665 8.063-3.386 7.748-10.833 21.045-14.616 28.631-1.894 3.796-2.88 6.2-3.337 8.02-.457 1.82-.3 3.18.03 4.207.668 2.075 2.118 4.498 3.72 6.05.783.76 2.207 1.564 4.214 1.428 2.007-.135 4.745-.907 9.344-2.695 3.907-1.518 9.198-3.873 14.74-6.374-.753 1.614-1.31 3.42-1.7 5.49-.763 4.048-1 9.115-1.195 15.936-.389 13.643-.577 34.398-.355 44.01.025 1.069.074 1.56.11 2.372-3.756-.982-9.002-2.114-12.37-2.579-1.02-.14-1.825-.216-2.48-.226-.656-.01-1.1-.108-1.868.367-.384.238-.862.959-.804 1.579.058.62.336.91.542 1.13.412.44.837.687 1.399.998 1.146.635 2.96 1.418 4.819 2.427 1.859 1.009 3.705 2.25 4.662 3.42.963 1.178 2.017 3.486 2.892 5.812.876 2.325 1.602 4.65 2.27 6.196.656 1.523 1.267 2.646 2.559 3.131.646.243 1.365.191 1.925.002s1.023-.479 1.49-.81c1.869-1.328 4.161-3.684 5.469-5.49.654-.903 1.15-2.096 1.207-4.14.057-2.044-.134-5.227-.505-11.2-.742-11.943-2.222-35-2.083-48.255.07-6.628.547-10.807 1.22-13.554.673-2.747 1.48-4.03 2.421-5.196 1.884-2.331 3.815-3.49 8.854-4.948 5.038-1.458 12.96-3.042 17.559-4.547 2.299-.752 3.802-1.418 4.8-2.544.5-.563.835-1.32.845-2.072.01-.753-.255-1.417-.6-1.998-1.379-2.323-4.33-4.38-6.761-5.536-1.215-.578-2.653-.901-4.526-.554-1.873.347-4.314 1.213-8.463 2.832-8.297 3.239-23.435 9.558-31.429 12.25-1.998.672-3.545 1.114-4.656 1.32-1.11.207-1.759.126-1.893.073-.134-.054-.044.117-.105-.275-.06-.393-.013-1.24.194-2.377.824-4.545 3.687-13.339 5.85-20.197 2.165-6.857 3.568-11.643 4.561-15.362.994-3.72 1.603-6.31 1.44-8.54-.083-1.115-.36-2.079-.842-2.865-.484-.787-1.276-1.52-2.39-1.52z" style="font-feature-settings:normal;font-variant-alternates:normal;font-variant-caps:normal;font-variant-east-asian:normal;font-variant-ligatures:normal;font-variant-numeric:normal;font-variant-position:normal;font-variation-settings:normal;inline-size:0;isolation:auto;mix-blend-mode:normal;shape-margin:0;shape-padding:0;text-decoration-color:#000;text-decoration-line:none;text-decoration-style:solid;text-indent:0;text-orientation:mixed;text-transform:none;white-space:normal"/><path d="M176.65 125.21c-.249 0-.521.03-.856.173-.446.19-.97.79-1.054 1.346-.167 1.113.313 1.503.706 2.033.393.53.919 1.105 1.605 1.797 2.747 2.767 8.009 7.289 11.536 12.254 3.528 4.965 5.436 10.548 7.363 13.88.963 1.665 1.96 2.8 3.252 3.353 1.292.554 2.677.329 3.85-.165 2.343-.986 4.741-2.981 6.053-4.982.656-1 1.029-2.359.659-3.68-.37-1.32-1.219-2.575-2.603-4.34-2.768-3.528-7.928-9.17-13.56-13.381-5.633-4.212-11.505-6.832-14.67-7.831-.792-.25-1.407-.414-2.038-.45a6.225 6.225 0 00-.243-.008zM141.01 127.33c-.333-.002-.603.086-.905.168-.485.13-1.019.336-1.665.633-2.587 1.187-6.95 3.84-10.984 7.074-2.017 1.618-3.886 3.331-5.506 4.625-1.62 1.293-3.052 2.068-3.655 2.126-.604.058-1.13-.276-1.796-1.06-.666-.785-1.248-1.867-1.836-2.731-.295-.433-.55-.781-.976-1.108a1.866 1.866 0 00-.945-.41c-.457-.063-1.09.148-1.422.475-.663.656-.6 1.167-.628 1.682-.028.514.008 1.088.09 1.802.334 2.854 1.424 7.868 3.102 11.145 1.68 3.277 4.087 4.456 5.712 4.79.812.167 1.904.176 2.809-.398s1.523-1.45 2.264-2.758c1.482-2.614 3.442-7.177 5.494-10.537 2.052-3.36 4.215-5.607 6.396-7.494s4.296-3.259 5.498-4.572c.3-.328.565-.61.739-1.187.086-.288.15-.724-.057-1.207-.207-.482-.685-.822-1.04-.937a2.245 2.245 0 00-.69-.121z" style="font-feature-settings:normal;font-variant-alternates:normal;font-variant-caps:normal;font-variant-east-asian:normal;font-variant-ligatures:normal;font-variant-numeric:normal;font-variant-position:normal;font-variation-settings:normal;inline-size:0;isolation:auto;mix-blend-mode:normal;shape-margin:0;shape-padding:0;text-decoration-color:#000;text-decoration-line:none;text-decoration-style:solid;text-indent:0;text-orientation:mixed;text-transform:none;white-space:normal"/></g></svg>