<?xml version="1.0" encoding="UTF-8" standalone="no"?>
<svg
   xmlns:dc="http://purl.org/dc/elements/1.1/"
   xmlns:cc="http://creativecommons.org/ns#"
   xmlns:rdf="http://www.w3.org/1999/02/22-rdf-syntax-ns#"
   xmlns:svg="http://www.w3.org/2000/svg"
   xmlns="http://www.w3.org/2000/svg"
   width="793.75mm"
   height="190.08299mm"
   viewBox="0 0 793.75 190.08299"
   version="1.1"
   id="svg3838">
  <defs
     id="defs3832" />
  <metadata
     id="metadata3835">
    <rdf:RDF>
      <cc:Work
         rdf:about="">
        <dc:format>image/svg+xml</dc:format>
        <dc:type
           rdf:resource="http://purl.org/dc/dcmitype/StillImage" />
        <dc:title></dc:title>
      </cc:Work>
    </rdf:RDF>
  </metadata>
  <g
     id="layer1">
    <path
       id="path2621-1"
       style="display:inline;fill:#363e54;fill-opacity:1;stroke-width:1.84754;stroke-linejoin:round;paint-order:stroke fill markers"
       d="M 0,-2.4572314e-4 V 6.9450666 v 8.2682094 8.26822 8.268241 8.268229 8.26822 8.268225 133.528829 H 263.26053 527.84374 793.75 V 59.200245 50.93202 42.6638 34.395571 26.12733 17.85911 9.5909 -2.4572314e-4 h -6.94528 A 1.3229167,1.3229167 135 0 0 785.4818,1.322671 v 5.6223956 a 1.3229167,1.3229167 135 0 1 -1.32292,1.3229167 h -5.62246 -8.2682 -8.2682 -8.2683 -8.2682 A 1.3229167,1.3229167 135 0 0 744.1406,9.5909 v 5.622376 8.26822 a 1.3229167,1.3229167 135 0 1 -1.32292,1.322917 h -5.62236 -8.2683 -8.2682 -8.2682 -8.2682 -8.2683 -8.2682 -8.2682 -8.2683 a 1.3229167,1.3229167 135 0 0 -1.32292,1.322917 v 5.622407 8.268219 a 1.3229167,1.3229167 135 0 1 -1.32292,1.322917 h -5.62237 -8.2682 -8.2682 -8.2683 -8.26819 -8.26823 -8.26823 -8.26823 -8.26823 -8.26823 -8.26823 -8.26823 -8.26823 -8.26823 a 1.3229167,1.3229167 45 0 1 -1.32292,-1.322917 V 34.395571 26.12733 a 1.3229167,1.3229167 45 0 0 -1.32292,-1.322917 h -5.62239 A 1.3229167,1.3229167 45 0 1 545.7031,23.481496 V 17.85911 9.5909 A 1.3229167,1.3229167 45 0 0 544.38018,8.2679833 H 538.7578 A 1.3229167,1.3229167 45 0 1 537.43488,6.9450666 V 1.322671 a 1.3229167,1.3229167 45 0 0 -1.32292,-1.32291672314 h -5.62238 -8.26823 A 1.3229167,1.3229167 135 0 0 520.89843,1.322671 v 5.6223956 a 1.3229167,1.3229167 135 0 1 -1.32292,1.3229167 h -5.62239 -8.26823 -8.26824 -8.26823 -8.26823 A 1.3229167,1.3229167 135 0 0 479.55727,9.5909 l 0,5.622376 v 8.26822 a 1.3229167,1.3229167 135 0 1 -1.32292,1.322917 l -5.62239,0 h -8.26823 -8.26823 -8.26822 -8.26823 -8.26823 -8.26824 -8.26822 -8.26819 a 1.3229167,1.3229167 135 0 0 -1.32292,1.322917 v 5.622407 8.268219 a 1.3229167,1.3229167 135 0 1 -1.32292,1.322917 h -5.62234 -8.26818 -8.26824 -8.26823 -8.26823 -8.26822 -8.26823 -8.26823 -8.26824 -8.26823 -8.26822 -8.26823 -8.26822 -8.26823 a 1.3229167,1.3229167 45 0 1 -1.32292,-1.322917 V 34.395571 26.12733 a 1.3229167,1.3229167 45 0 0 -1.32292,-1.322917 h -5.62239 a 1.3229167,1.3229167 45 0 1 -1.32292,-1.322917 V 17.85911 9.5909 A 1.3229167,1.3229167 45 0 0 279.79699,8.2679833 H 274.1746 A 1.3229167,1.3229167 45 0 1 272.85168,6.9450666 V 1.322671 a 1.3229167,1.3229167 45 0 0 -1.32292,-1.32291672314 h -5.62239 -8.26824 A 1.3229167,1.3229167 135 0 0 256.31521,1.322671 v 5.6223956 a 1.3229167,1.3229167 135 0 1 -1.32292,1.3229167 h -5.62239 -8.26824 -8.26823 -8.26822 -8.26823 A 1.3229167,1.3229167 135 0 0 214.97406,9.5909 l 0,5.622376 v 8.26822 a 1.3229167,1.3229167 135 0 1 -1.32292,1.322917 h -5.62243 -8.26829 -8.26828 -8.26823 -8.26823 -8.26823 -8.2682 -8.26823 -8.26823 a 1.3229167,1.3229167 135 0 0 -1.32292,1.322917 v 5.622407 8.268219 a 1.3229167,1.3229167 135 0 1 -1.32292,1.322917 h -5.6224 -8.26823 -8.26823 -8.26823 -8.26822 -8.268223 -8.26823 -8.26824 -8.26823 -8.26822 -8.26823 -8.26823 -8.26821 -8.26823 A 1.3229167,1.3229167 45 0 1 24.80468,40.017956 v -5.622385 l 0,-8.268241 a 1.3229167,1.3229167 45 0 0 -1.322917,-1.322917 l -5.622396,0 A 1.3229167,1.3229167 45 0 1 16.53645,23.481496 V 17.85911 9.5909 A 1.3229167,1.3229167 45 0 0 15.213533,8.2679833 H 9.5911467 A 1.3229167,1.3229167 45 0 1 8.26823,6.9450666 V 1.322671 A 1.3229167,1.3229167 45 0 0 6.9453133,-2.4572314e-4 Z" />
    <rect
       style="display:inline;opacity:0.3;fill:#ffff8d;fill-opacity:1;stroke-width:0.583867;stroke-linejoin:round;paint-order:stroke fill markers"
       id="rect1297-3-2"
       width="4.8275533"
       height="4.8275414"
       x="216.69427"
       y="51.329723"
       ry="0.75095159" />
  </g>
</svg>
