<svg width="3000" height="718.43" viewBox="0 0 793.75 190.08" xmlns="http://www.w3.org/2000/svg"><path d="M793.74 0h-6.945c-.73 0-1.323.592-1.323 1.323v5.622c0 .73-.592 1.323-1.323 1.323h-38.695c-.73 0-1.323.592-1.323 1.323v13.89c0 .73-.592 1.323-1.323 1.323h-71.767c-.73 0-1.323.592-1.323 1.323v13.89c0 .73-.592 1.323-1.323 1.323H555.287c-.73 0-1.323-.592-1.323-1.323v-13.89c0-.73-.592-1.323-1.323-1.323h-5.622c-.73 0-1.323-.592-1.323-1.323V9.59c0-.73-.592-1.323-1.323-1.323h-5.622c-.73 0-1.323-.592-1.323-1.323V1.323c0-.73-.592-1.323-1.323-1.323h-13.89c-.73 0-1.323.592-1.323 1.323v5.622c0 .73-.592 1.323-1.323 1.323h-38.695c-.73 0-1.323.592-1.323 1.323v13.89c0 .73-.592 1.323-1.323 1.323h-71.767c-.73 0-1.323.592-1.323 1.323v13.89c0 .73-.592 1.323-1.323 1.323H290.707c-.73 0-1.323-.592-1.323-1.323v-13.89c0-.73-.592-1.323-1.323-1.323h-5.622c-.73 0-1.323-.592-1.323-1.323V9.59c0-.73-.592-1.323-1.323-1.323h-5.622c-.73 0-1.323-.592-1.323-1.323V1.323c0-.73-.592-1.323-1.323-1.323h-13.89c-.73 0-1.323.592-1.323 1.323v5.622c0 .73-.592 1.323-1.323 1.323h-38.695c-.73 0-1.323.592-1.323 1.323v13.89c0 .73-.592 1.323-1.323 1.323h-71.767c-.73 0-1.323.592-1.323 1.323v13.89c0 .73-.592 1.323-1.323 1.323H26.127c-.73 0-1.323-.592-1.323-1.323v-13.89c0-.73-.592-1.323-1.323-1.323H17.86c-.73 0-1.323-.592-1.323-1.323V9.59c0-.73-.592-1.323-1.323-1.323H9.591c-.73 0-1.323-.592-1.323-1.323V1.323C8.268.593 7.676 0 6.945 0H0v190.082h793.74" fill="#363e54" paint-order="stroke fill markers"/><g fill="#ffff8d" opacity=".6" stroke-linejoin="round" stroke-width=".584" paint-order="stroke fill markers"><rect x="1.72" y="51.329" width="4.828" height="4.827" ry=".751" opacity=".3"/><rect x="84.403" y="51.329" width="4.828" height="4.827" ry=".751" opacity=".3"/><rect x="92.671" y="51.329" width="4.828" height="4.827" ry=".751" opacity=".3"/><rect x="100.94" y="51.329" width="4.828" height="4.827" ry=".751" opacity=".3"/><rect x="142.28" y="43.061" width="4.828" height="4.827" ry=".751" opacity=".3"/><rect x="191.89" y="26.525" width="4.828" height="4.827" ry=".751" opacity=".3"/><rect x="258.04" y="43.061" width="4.828" height="4.827" ry=".751" opacity=".3"/><rect x="266.3" y="43.061" width="4.828" height="4.827" ry=".751" opacity=".3"/><rect x="233.23" y="18.257" width="4.828" height="4.827" ry=".751" opacity=".3"/><rect x="266.3" y="1.72" width="4.828" height="4.827" ry=".751" opacity=".3"/><rect x="307.64" y="51.329" width="4.828" height="4.827" ry=".751" opacity=".3"/><rect x="390.33" y="43.061" width="4.828" height="4.827" ry=".751" opacity=".3"/><rect x="539.16" y="26.525" width="4.828" height="4.827" ry=".751" opacity=".3"/><rect x="547.42" y="26.525" width="4.828" height="4.827" ry=".751" opacity=".3"/><rect x="415.13" y="26.525" width="4.828" height="4.827" ry=".751" opacity=".3"/><rect x="456.47" y="51.329" width="4.828" height="4.827" ry=".751" opacity=".3"/><rect x="497.81" y="18.257" width="4.828" height="4.827" ry=".751" opacity=".3"/><rect x="580.5" y="43.061" width="4.828" height="4.827" ry=".751" opacity=".3"/><rect x="696.25" y="51.33" width="4.828" height="4.827" ry=".751" opacity=".3"/><rect x="754.13" y="34.793" width="4.828" height="4.827" ry=".751" opacity=".3"/><rect x="778.93" y="26.525" width="4.828" height="4.827" ry=".751" opacity=".3"/><rect x="687.98" y="34.793" width="4.828" height="4.827" ry=".751" opacity=".3"/></g></svg>