<?xml version="1.0" encoding="UTF-8" standalone="no"?>
<svg
   xmlns:dc="http://purl.org/dc/elements/1.1/"
   xmlns:cc="http://creativecommons.org/ns#"
   xmlns:rdf="http://www.w3.org/1999/02/22-rdf-syntax-ns#"
   xmlns:svg="http://www.w3.org/2000/svg"
   xmlns="http://www.w3.org/2000/svg"
   width="793.75mm"
   height="190.08299mm"
   viewBox="0 0 793.75 190.08299"
   version="1.1"
   id="svg3235">
  <defs
     id="defs3229" />
  <metadata
     id="metadata3232">
    <rdf:RDF>
      <cc:Work
         rdf:about="">
        <dc:format>image/svg+xml</dc:format>
        <dc:type
           rdf:resource="http://purl.org/dc/dcmitype/StillImage" />
        <dc:title></dc:title>
      </cc:Work>
    </rdf:RDF>
  </metadata>
  <g
     id="layer1">
    <path
       id="path2621"
       style="display:inline;fill:#3b445c;fill-opacity:1;stroke-width:1.84754;stroke-linejoin:round;paint-order:stroke fill markers"
       d="M 5e-6,-2.4372314e-4 V 6.9450696 15.213279 l 0,8.26823 0,8.26824 0,8.26823 v 8.26823 8.26823 l 0,133.528801 h 263.260275 264.58341 265.9063 v -130.882977 -8.26823 -8.26822 -8.26823 -8.26824 -8.26823 -8.26821 -9.59114672314 h -6.94531 A 1.3229167,1.3229167 135 0 0 785.48176,1.322673 l 0,5.6223966 a 1.3229167,1.3229167 135 0 1 -1.32292,1.3229167 h -5.6224 -8.26822 -8.26821 -8.26825 -8.26822 a 1.3229167,1.3229167 135 0 0 -1.32292,1.3229167 v 5.622376 8.26823 a 1.3229167,1.3229167 135 0 1 -1.32292,1.322917 h -5.6224 -8.26823 -8.26823 -8.26821 -8.26823 -8.26824 -8.26823 -8.26824 -8.26822 a 1.3229167,1.3229167 135 0 0 -1.32292,1.322917 v 5.622406 8.26823 a 1.3229167,1.3229167 135 0 1 -1.32292,1.322917 h -5.62237 -8.26824 -8.26823 -8.26824 -8.26822 -8.26823 -8.26823 -8.26822 -8.26824 -8.26823 -8.26823 -8.26823 -8.26823 -8.26825 a 1.3229167,1.3229167 45 0 1 -1.32292,-1.322917 v -5.622396 -8.26824 a 1.3229167,1.3229167 45 0 0 -1.32292,-1.322917 h -5.62242 a 1.3229167,1.3229167 45 0 1 -1.32292,-1.322917 v -5.622396 -8.26821 a 1.3229167,1.3229167 45 0 0 -1.32292,-1.3229167 h -5.62238 A 1.3229167,1.3229167 45 0 1 537.43484,6.9450696 V 1.322673 a 1.3229167,1.3229167 45 0 0 -1.32292,-1.32291672314 h -5.62239 -8.26823 A 1.3229167,1.3229167 135 0 0 520.89838,1.322673 v 5.6223966 a 1.3229167,1.3229167 135 0 1 -1.32292,1.3229167 h -5.62238 -8.26823 -8.26824 -8.26823 -8.26823 a 1.3229167,1.3229167 135 0 0 -1.32292,1.3229167 v 5.622376 8.26823 a 1.3229167,1.3229167 135 0 1 -1.32292,1.322917 h -5.62239 -8.26823 -8.26823 -8.26822 -8.26823 -8.26823 -8.26823 -8.26823 -8.26823 a 1.3229167,1.3229167 135 0 0 -1.32292,1.322917 l 0,5.622406 0,8.26823 a 1.3229167,1.3229167 135 0 1 -1.32292,1.322917 l -5.62239,0 h -8.26823 -8.26824 -8.26823 -8.26824 -8.26824 -8.26825 -8.26824 -8.26823 -8.26823 -8.26823 -8.26824 -8.26821 -8.26823 a 1.3229167,1.3229167 45 0 1 -1.32292,-1.322917 v -5.622396 -8.26824 a 1.3229167,1.3229167 45 0 0 -1.32292,-1.322917 h -5.62238 a 1.3229167,1.3229167 45 0 1 -1.32292,-1.322917 v -5.622396 -8.26821 a 1.3229167,1.3229167 45 0 0 -1.32292,-1.3229167 h -5.62241 A 1.3229167,1.3229167 45 0 1 272.85143,6.9450696 V 1.322673 a 1.3229167,1.3229167 45 0 0 -1.32292,-1.32291672314 h -5.62238 l -8.26824,0 A 1.3229167,1.3229167 135 0 0 256.31497,1.322673 v 5.6223966 a 1.3229167,1.3229167 135 0 1 -1.32292,1.3229167 h -5.6224 -8.26821 -8.26824 -8.26822 -8.26823 a 1.3229167,1.3229167 135 0 0 -1.32292,1.3229167 v 5.622376 8.26823 a 1.3229167,1.3229167 135 0 1 -1.32292,1.322917 h -5.62239 -8.26824 -8.26823 -8.26822 -8.26822 -8.26825 -8.26817 -8.26818 -8.26822 a 1.3229167,1.3229167 135 0 0 -1.32292,1.322917 v 5.622406 8.26823 a 1.3229167,1.3229167 135 0 1 -1.32292,1.322917 h -5.62238 -8.26821 -8.26823 -8.26824 -8.26823 -8.268228 -8.26823 -8.26822 -8.26822 -8.26824 -8.26823 -8.26823 -8.26824 -8.26821 a 1.3229167,1.3229167 45 0 1 -1.322917,-1.322917 v -5.622396 l 0,-8.26824 A 1.3229167,1.3229167 45 0 0 23.481778,24.804426 H 17.859382 A 1.3229167,1.3229167 45 0 1 16.536465,23.481509 V 17.859113 9.590903 A 1.3229167,1.3229167 45 0 0 15.213548,8.2679863 H 9.5911517 A 1.3229167,1.3229167 45 0 1 8.268235,6.9450696 V 1.322673 A 1.3229167,1.3229167 45 0 0 6.9453183,-2.4372314e-4 Z" />
    <rect
       style="display:inline;opacity:0.3;fill:#ffff8d;fill-opacity:1;stroke-width:0.583867;stroke-linejoin:round;paint-order:stroke fill markers"
       id="rect1297"
       width="4.8275533"
       height="4.8275414"
       x="473.00934"
       y="26.524435"
       ry="0.75095159" />
    <rect
       style="display:inline;opacity:0.3;fill:#ffff8d;fill-opacity:1;stroke-width:0.583867;stroke-linejoin:round;paint-order:stroke fill markers"
       id="rect1297-3"
       width="4.8275533"
       height="4.8275414"
       x="497.81403"
       y="43.060875"
       ry="0.75095159" />
  </g>
</svg>
