<svg width="3000" height="739.15" viewBox="0 0 793.75 195.57" xmlns="http://www.w3.org/2000/svg"><g fill="#3b445c" paint-order="stroke fill markers"><path d="M498.52.032l-.308.113a.53.53 0 00-.315.679l.07.188a.37.37 0 01-.348.497h-9.279a.53.53 0 00-.529.53v.327a.53.53 0 00.53.53h3.027a.53.53 0 01.53.529v5.524a.53.53 0 01-.53.529h-.709l-.493-.06c.28-.567.32-.664.355-.763.1-.274.218-.734.266-1.023.025-.152.046-.308.061-.469.029-.29.042-.765.034-1.057-.006-.229-.02-.465-.043-.707-.027-.29-.21-.34-.392-.113l-5.073 6.321c-.183.228-.095.395.195.358.241-.03.474-.067.7-.11.286-.056.746-.172 1.024-.262.153-.05.301-.104.445-.162.27-.11.695-.323.941-.48.073-.047.368-.087.66-.087h2.029a.53.53 0 01.53.53v2.358a.53.53 0 00.528.53h.328a.53.53 0 00.53-.53V3.424a.53.53 0 01.529-.529h3.806a.37.37 0 01.347.497l-.069.189a.53.53 0 00.315.678l.308.113a.53.53 0 00.679-.315l.497-1.358a1.446 1.446 0 000-.994l-.497-1.358a.53.53 0 00-.68-.315z" opacity=".999"/><g transform="translate(464.25 -184.41)"><rect x="220.06" y="196.83" width="7.109" height="7.858" ry=".926" opacity=".999"/><path d="M220.32 205.73l-2.115 9.355a.53.53 57.743 00.4.633l.322.073a.53.53 147.74 00.633-.4l1.87-8.272a.662.662 141.37 01.646-.516h.312a.53.53 45 01.53.53v8.291a.53.53 45 00.528.53h.331a.53.53 135 00.53-.53v-8.292a.53.53 135 01.528-.53h.312a.662.662 38.628 01.646.517l1.871 8.272a.53.53 32.256 00.633.4l.323-.073a.53.53 122.26 00.4-.633l-2.117-9.355a.662.662 38.628 00-.646-.516h-5.291a.662.662 141.37 00-.646.516z" opacity=".999"/></g><g transform="translate(-31.051 -184.41)"><rect x="220.06" y="196.83" width="7.109" height="7.858" ry=".926" opacity=".999"/><path d="M220.32 205.73l-2.115 9.355a.53.53 57.743 00.4.633l.322.073a.53.53 147.74 00.633-.4l1.87-8.272a.662.662 141.37 01.646-.516h.312a.53.53 45 01.53.53v8.291a.53.53 45 00.528.53h.331a.53.53 135 00.53-.53v-8.292a.53.53 135 01.528-.53h.312a.662.662 38.628 01.646.517l1.871 8.272a.53.53 32.256 00.633.4l.323-.073a.53.53 122.26 00.4-.633l-2.117-9.355a.662.662 38.628 00-.646-.516h-5.291a.662.662 141.37 00-.646.516z" opacity=".999"/></g><path d="M67.113 32.985l-.308.113a.53.53 0 00-.315.679l.07.188a.37.37 0 01-.348.497h-9.278a.53.53 0 00-.53.53v.327a.53.53 0 00.53.53h3.027a.53.53 0 01.53.529v5.524a.53.53 0 01-.53.529h-.708l-.494-.06c.28-.567.32-.664.355-.763.1-.274.218-.734.266-1.023.025-.152.046-.308.061-.469.029-.29.042-.765.034-1.057a10.76 10.76 0 00-.043-.707c-.027-.29-.21-.34-.392-.113l-5.073 6.321c-.183.228-.095.395.195.358.241-.03.474-.067.7-.11.286-.056.746-.172 1.024-.262.153-.05.301-.104.445-.162.27-.11.695-.323.941-.48.073-.047.368-.087.66-.087h2.029a.53.53 0 01.53.53v2.358a.53.53 0 00.528.53h.328a.53.53 0 00.53-.53V36.377a.53.53 0 01.529-.529h3.806a.37.37 0 01.347.497l-.069.189a.53.53 0 00.315.678l.308.113a.53.53 0 00.679-.315l.497-1.358a1.446 1.446 0 000-.994l-.497-1.358a.53.53 0 00-.679-.315z" opacity=".999"/><path d="M793.74 5.484h-6.945c-.73 0-1.323.592-1.323 1.323v5.622c0 .731-.592 1.323-1.323 1.323h-38.695c-.73 0-1.323.593-1.323 1.323v13.89c0 .731-.592 1.324-1.323 1.324h-71.767c-.73 0-1.323.592-1.323 1.322v13.89c0 .732-.592 1.324-1.323 1.324H555.287c-.73 0-1.323-.592-1.323-1.323v-13.89c0-.731-.592-1.323-1.323-1.323h-5.622c-.73 0-1.323-.593-1.323-1.323v-13.89c0-.731-.592-1.324-1.323-1.324h-5.622c-.73 0-1.323-.592-1.323-1.323V6.807c0-.73-.592-1.323-1.323-1.323h-13.89c-.73 0-1.323.592-1.323 1.323v5.622c0 .731-.592 1.323-1.323 1.323h-38.695c-.73 0-1.323.593-1.323 1.323v13.89c0 .731-.592 1.324-1.323 1.324h-71.767c-.73 0-1.323.592-1.323 1.322v13.89c0 .732-.592 1.324-1.323 1.324H290.707c-.73 0-1.323-.592-1.323-1.323v-13.89c0-.731-.592-1.323-1.323-1.323h-5.622c-.73 0-1.323-.593-1.323-1.323v-13.89c0-.731-.592-1.324-1.323-1.324h-5.622c-.73 0-1.323-.592-1.323-1.323V6.807c0-.73-.592-1.323-1.323-1.323h-13.89c-.73 0-1.323.592-1.323 1.323v5.622c0 .731-.592 1.323-1.323 1.323h-38.695c-.73 0-1.323.593-1.323 1.323v13.89c0 .731-.592 1.324-1.323 1.324h-71.767c-.73 0-1.323.592-1.323 1.322v13.89c0 .732-.592 1.324-1.323 1.324H26.127c-.73 0-1.323-.592-1.323-1.323v-13.89c0-.731-.592-1.323-1.323-1.323H17.86c-.73 0-1.323-.593-1.323-1.323v-13.89c0-.731-.592-1.324-1.323-1.324H9.591c-.73 0-1.323-.592-1.323-1.323V6.807c0-.73-.592-1.323-1.323-1.323H0v190.082h793.74"/></g><g fill="#ffff8d" opacity=".3" stroke-linejoin="round" stroke-width=".584" paint-order="stroke fill markers"><rect x="481.28" y="40.277" width="4.828" height="4.827" ry=".751" opacity=".3"/><rect x="522.62" y="56.813" width="4.828" height="4.827" ry=".751" opacity=".3"/><rect x="258.04" y="23.741" width="4.828" height="4.827" ry=".751" opacity=".3"/><rect x="9.989" y="40.277" width="4.828" height="4.827" ry=".751" opacity=".3"/><rect x="51.33" y="56.813" width="4.828" height="4.827" ry=".751" opacity=".3"/><rect x="117.48" y="48.545" width="4.828" height="4.827" ry=".751" opacity=".3"/><rect x="125.74" y="56.813" width="4.828" height="4.827" ry=".751" opacity=".3"/><rect x="158.82" y="40.277" width="4.828" height="4.827" ry=".751" opacity=".3"/><rect x="175.35" y="56.813" width="4.828" height="4.827" ry=".751" opacity=".3"/><rect x="258.04" y="15.472" width="4.828" height="4.827" ry=".751" opacity=".3"/><rect x="241.5" y="40.277" width="4.828" height="4.827" ry=".751" opacity=".3"/><rect x="324.18" y="48.545" width="4.828" height="4.827" ry=".751" opacity=".3"/><rect x="373.79" y="56.813" width="4.828" height="4.827" ry=".751" opacity=".3"/><rect x="522.62" y="7.204" width="4.828" height="4.827" ry=".751" opacity=".3"/><rect x="530.89" y="7.204" width="4.828" height="4.827" ry=".751" opacity=".3"/><rect x="431.67" y="32.009" width="4.828" height="4.827" ry=".751" opacity=".3"/><rect x="539.16" y="32.009" width="4.828" height="4.827" ry=".751" opacity=".3"/><rect x="621.84" y="56.813" width="4.828" height="4.827" ry=".751" opacity=".3"/><rect x="671.45" y="32.009" width="4.828" height="4.827" ry=".751" opacity=".3"/><rect x="787.2" y="48.545" width="4.828" height="4.827" ry=".751" opacity=".3"/><rect x="729.32" y="56.813" width="4.828" height="4.827" ry=".751" opacity=".3"/></g></svg>