<?xml version="1.0" encoding="UTF-8" standalone="no"?>
<svg
   xmlns:dc="http://purl.org/dc/elements/1.1/"
   xmlns:cc="http://creativecommons.org/ns#"
   xmlns:rdf="http://www.w3.org/1999/02/22-rdf-syntax-ns#"
   xmlns:svg="http://www.w3.org/2000/svg"
   xmlns="http://www.w3.org/2000/svg"
   width="793.75mm"
   height="190.08299mm"
   viewBox="0 0 793.75 190.08299"
   version="1.1"
   id="svg2039">
  <defs
     id="defs2033" />
  <metadata
     id="metadata2036">
    <rdf:RDF>
      <cc:Work
         rdf:about="">
        <dc:format>image/svg+xml</dc:format>
        <dc:type
           rdf:resource="http://purl.org/dc/dcmitype/StillImage" />
        <dc:title></dc:title>
      </cc:Work>
    </rdf:RDF>
  </metadata>
  <g
     id="layer1">
    <path
       id="path2621-1-3"
       style="display:inline;fill:#293040;fill-opacity:1;stroke-width:1.84755;stroke-linejoin:round;paint-order:stroke fill markers"
       d="M 5e-6,-2.4822314e-4 V 6.9450651 l 0,8.2682099 v 8.26823 l 0,8.26824 0,8.26823 v 8.26823 l 0,8.268229 V 190.08324 H 263.26045 527.84374 793.74999 v -130.882972 -8.268229 -8.26823 -8.26823 -8.26824 -8.26823 -8.2682105 -9.59114672314 h -6.94531 A 1.3229167,1.3229167 135 0 0 785.48176,1.3226685 v 5.6223966 a 1.3229167,1.3229167 135 0 1 -1.32292,1.3229167 h -5.62239 -8.26823 -8.26823 -8.26823 -8.26823 a 1.3229167,1.3229167 135 0 0 -1.32292,1.3229167 l 0,5.6223765 v 8.26823 a 1.3229167,1.3229167 135 0 1 -1.32292,1.322917 h -5.62239 -8.26823 -8.26823 -8.26822 -8.26823 -8.26823 -8.26823 -8.26823 -8.26823 a 1.3229167,1.3229167 135 0 0 -1.32292,1.322917 v 5.622406 8.26823 a 1.3229167,1.3229167 135 0 1 -1.32292,1.322917 h -5.62239 -8.26823 -8.26823 -8.26823 -8.26822 -8.26823 -8.26823 -8.26823 -8.26823 -8.26823 -8.26823 -8.26823 -8.26823 -8.26823 a 1.3229167,1.3229167 45 0 1 -1.32292,-1.322917 v -5.622396 -8.26824 a 1.3229167,1.3229167 45 0 0 -1.32292,-1.322917 h -5.62239 a 1.3229167,1.3229167 45 0 1 -1.32292,-1.322917 V 17.859109 9.5908985 a 1.3229167,1.3229167 45 0 0 -1.32292,-1.3229167 h -5.62238 A 1.3229167,1.3229167 45 0 1 537.43489,6.9450651 V 1.3226685 a 1.3229167,1.3229167 45 0 0 -1.32292,-1.32291672314 h -5.62239 -8.26823 A 1.3229167,1.3229167 135 0 0 520.89843,1.3226685 v 5.6223966 a 1.3229167,1.3229167 135 0 1 -1.32292,1.3229167 h -5.62239 -8.26823 -8.26824 -8.26823 -8.26823 a 1.3229167,1.3229167 135 0 0 -1.32292,1.3229167 v 5.6223765 8.26823 a 1.3229167,1.3229167 135 0 1 -1.32292,1.322917 h -5.62239 -8.26823 -8.26823 -8.26822 -8.26823 -8.26823 -8.26823 -8.26823 -8.26823 a 1.3229167,1.3229167 135 0 0 -1.32292,1.322917 l 0,5.622406 0,8.26823 a 1.3229167,1.3229167 135 0 1 -1.32292,1.322917 h -5.62239 -8.26823 -8.26823 -8.26823 -8.26822 -8.26822 -8.26822 -8.26824 -8.26823 -8.26819 -8.26823 -8.26823 -8.26822 -8.26823 a 1.3229167,1.3229167 45 0 1 -1.32292,-1.322917 v -5.622396 -8.26824 a 1.3229167,1.3229167 45 0 0 -1.32292,-1.322917 h -5.62239 a 1.3229167,1.3229167 45 0 1 -1.32292,-1.322917 V 17.859109 9.5908985 a 1.3229167,1.3229167 45 0 0 -1.32292,-1.3229167 h -5.62239 A 1.3229167,1.3229167 45 0 1 272.8516,6.9450651 V 1.3226685 a 1.3229167,1.3229167 45 0 0 -1.32292,-1.32291672314 h -5.62239 -8.26823 A 1.3229167,1.3229167 135 0 0 256.31514,1.3226685 v 5.6223966 a 1.3229167,1.3229167 135 0 1 -1.32292,1.3229167 h -5.6224 -8.26823 -8.26822 -8.26822 -8.26823 A 1.3229167,1.3229167 135 0 0 214.974,9.5908985 l 0,5.6223765 0,8.26823 a 1.3229167,1.3229167 135 0 1 -1.32292,1.322917 l -5.62239,0 h -8.26824 -8.26823 -8.26822 -8.26823 -8.26824 -8.26823 -8.26824 -8.26822 a 1.3229167,1.3229167 135 0 0 -1.32292,1.322917 v 5.622406 8.26823 a 1.3229167,1.3229167 135 0 1 -1.32292,1.322917 h -5.62239 -8.26824 -8.26826 -8.26823 -8.26822 -8.268228 -8.26822 -8.26823 -8.26823 -8.26823 -8.26823 -8.26823 -8.26823 -8.26823 a 1.3229167,1.3229167 45 0 1 -1.322917,-1.322917 v -5.622396 -8.26824 A 1.3229167,1.3229167 45 0 0 23.481768,24.804422 H 17.859372 A 1.3229167,1.3229167 45 0 1 16.536455,23.481505 V 17.859109 9.5908985 A 1.3229167,1.3229167 45 0 0 15.213538,8.2679818 H 9.5911517 A 1.3229167,1.3229167 45 0 1 8.268235,6.9450651 V 1.3226685 A 1.3229167,1.3229167 45 0 0 6.9453183,-2.4822314e-4 Z" />
  </g>
</svg>
